<svg width="404" height="276" viewBox="0 0 404 276" fill="none" xmlns="http://www.w3.org/2000/svg">
<g opacity="0.1">
<mask id="mask0_1:470" style="mask-type:alpha" maskUnits="userSpaceOnUse" x="0" y="0" width="404" height="276">
<rect x="403.5" y="0.5" width="275" height="403" transform="rotate(90 403.5 0.5)" fill="url(#paint0_linear_1:470)" stroke="#6246E5"/>
</mask>
<g mask="url(#mask0_1:470)">
<path d="M132.505 368.92C63.1726 368.92 6.96604 312.635 6.96604 243.202C6.96605 173.769 63.1726 117.484 132.505 117.484C201.838 117.484 258.045 173.769 258.045 243.202C258.045 312.635 201.838 368.92 132.505 368.92Z" stroke="#6246E5"/>
<path d="M145.773 373.902C68.1968 373.902 5.30773 310.925 5.30773 233.237C5.30774 155.55 68.1968 92.5727 145.773 92.5727C223.349 92.5728 286.238 155.55 286.238 233.237C286.238 310.925 223.349 373.902 145.773 373.902Z" stroke="#6246E5"/>
<path d="M156.552 378.885C71.649 378.885 2.82 309.959 2.82 224.934C2.82 139.909 71.649 70.9831 156.552 70.9831C241.456 70.9832 310.285 139.909 310.285 224.934C310.285 309.959 241.456 378.885 156.552 378.885Z" stroke="#6246E5"/>
<path d="M172.308 382.206C80.993 382.206 6.96645 308.076 6.96645 216.63C6.96646 125.184 80.993 51.0542 172.308 51.0542C263.623 51.0542 337.649 125.184 337.649 216.63C337.649 308.076 263.623 382.206 172.308 382.206Z" stroke="#6246E5"/>
<path d="M187.648 385.528C90.1506 385.528 11.1123 306.378 11.1123 208.742C11.1123 111.105 90.1507 31.9553 187.648 31.9553C285.145 31.9553 364.184 111.105 364.184 208.742C364.184 306.379 285.145 385.528 187.648 385.528Z" stroke="#6246E5"/>
<path d="M205.061 389.68C97.9469 389.68 11.1123 302.723 11.1123 195.456C11.1123 88.1879 97.9469 1.23143 205.061 1.23144C312.176 1.23144 399.01 88.1879 399.01 195.456C399.01 302.723 312.176 389.68 205.061 389.68Z" stroke="#6246E5"/>
</g>
</g>
<defs>
<linearGradient id="paint0_linear_1:470" x1="599.75" y1="11.3347" x2="379.806" y2="389.945" gradientUnits="userSpaceOnUse">
<stop stop-color="#747DEF"/>
<stop offset="1" stop-color="#5E3BE1"/>
</linearGradient>
</defs>
</svg>
