<svg width="38" height="32" viewBox="0 0 38 32" fill="none" xmlns="http://www.w3.org/2000/svg">
<mask id="mask0_1:489" style="mask-type:alpha" maskUnits="userSpaceOnUse" x="0" y="0" width="38" height="32">
<rect width="38" height="32" fill="#C4C4C4"/>
</mask>
<g mask="url(#mask0_1:489)">
<path d="M36.6105 1.9904C37.3018 3.18782 37.2092 4.61363 36.3677 5.71104L17.8939 29.8182C17.1321 30.8123 15.8776 31.3191 14.5948 31.0729C13.3387 30.8313 12.3427 29.9156 11.997 28.6841L9.26355 18.9555L8.97886 17.9435L8.24487 17.191L1.18643 9.95952C0.292689 9.04441 -0.0022998 7.72402 0.416558 6.51536C0.831105 5.32056 1.87082 4.4536 3.15272 4.2856L33.267 0.340382C34.6381 0.160393 35.9192 0.79304 36.6105 1.9904Z" fill="white"/>
<path d="M9.26358 18.9555L11.997 28.6841C12.3427 29.9157 13.3386 30.8313 14.5948 31.0729C15.8776 31.3192 17.1321 30.8124 17.8939 29.8182L36.3677 5.7111C37.2092 4.61368 37.3018 3.18788 36.6105 1.99045L8.97889 17.9436L9.26358 18.9555Z" fill="white"/>
<path d="M20.2231 11.4515C20.5043 11.9385 20.3379 12.5616 19.8503 12.8431L9.26355 18.9553L8.97887 17.9434L8.24487 17.1909L18.8316 11.0787C19.3192 10.7973 19.942 10.9646 20.2231 11.4515Z" fill="url(#paint0_linear_1:489)"/>
<path d="M9.26373 18.9554L19.8504 12.8432C20.338 12.5617 20.5045 11.9387 20.2233 11.4517L8.97905 17.9435L9.26373 18.9554Z" fill="url(#paint1_linear_1:489)"/>
</g>
<defs>
<linearGradient id="paint0_linear_1:489" x1="16.4077" y1="12.5441" x2="17.5452" y2="14.8251" gradientUnits="userSpaceOnUse">
<stop stop-color="#747DEF"/>
<stop offset="1" stop-color="#5E3BE1"/>
</linearGradient>
<linearGradient id="paint1_linear_1:489" x1="16.9029" y1="13.4017" x2="17.507" y2="14.5259" gradientUnits="userSpaceOnUse">
<stop stop-color="#747DEF"/>
<stop offset="1" stop-color="#5E3BE1"/>
</linearGradient>
</defs>
</svg>
